<svg xmlns="http://www.w3.org/2000/svg" width="512" height="512" viewBox="0 0 135.47 135.47"><path fill="currentColor" d="M1.484 128.28c.135-6.423.433-8.086 2.091-11.675 3.083-6.673 9.282-11.664 16.197-13.041l2.63-.532c.492-.104.242-.222-1.036-.489C14.537 101.117 9.2 94.48 9.2 87.416c0-8.366 7.167-15.533 15.533-15.533 8.373 0 15.533 7.16 15.533 15.533 0 7.058-5.37 13.739-12.148 15.113-1.59.322-1.679.688-.168.688 1.932 0 8.875 2.598 8.592 3.215-.071.155-.581 1.39-1.133 2.743-2.2 5.395-2.643 8.38-2.645 17.809l-.002 7.059h-31.4zm39.051-1.036c.001-4.734.116-7.508.381-9.131.923-5.668 3.575-10.858 7.597-14.868 4.075-4.062 9.937-7.072 14.947-7.674 1.854-.223 2.775-.622 1.463-.634-1.274-.012-5.128-1.373-7.012-2.478-3.396-1.99-6.658-5.752-8.13-9.373-1.084-2.667-1.346-4.168-1.327-7.585.016-2.946.094-3.46.857-5.699.462-1.353 1.355-3.289 1.984-4.301 1.376-2.211 4.367-5.122 6.615-6.44 1.847-1.083 5.74-2.47 6.932-2.47.434 0 .861-.117.95-.261s-1.698-3.786-3.97-8.095l-4.132-7.834H38.66l-4.948 9.39-5.094 9.39c-.08 0-2.372-4.226-5.093-9.39l-4.947-9.39-3.982-.162c-2.19-.089-4.332-.277-4.761-.417-4.056-1.328-7.276-4.824-8.125-8.823-.196-.921-.291-6.014-.291-15.478V1.415h132.63v14.193c0 15.299-.03 15.694-1.4 18.397-1.298 2.562-4.05 4.854-6.966 5.801-.457.148-2.622.343-4.812.432l-3.982.162-4.947 9.39-5.093 9.39c-.08 0-2.373-4.226-5.094-9.39l-4.948-9.39h-19.03l-4.132 7.834c-2.272 4.309-4.059 7.952-3.97 8.095s.475.261.859.261c.802 0 3.585.779 5.087 1.424 3.06 1.314 6.661 4.474 8.562 7.513.624.997 1.514 2.921 1.979 4.274.79 2.302.844 2.686.844 5.958 0 3.24-.059 3.67-.807 5.841-1.084 3.151-2.389 5.308-4.587 7.586-2.858 2.962-6.855 5.111-10.612 5.707-1.487.236-1.455.25 2.043.888 9.841 1.795 18.473 9.925 20.968 19.749.734 2.891.91 5.165.915 11.842l.005 6.67H40.535l.001-6.8zm15.541-106.4v-3.886h-7.771v7.771h7.771zm15.542 0v-3.886h-7.771v7.771h7.771zm15.542 0v-3.886h-7.771v7.771h7.771zm15.542 106.17c0-9.567-.669-13.638-3.138-19.108l-.747-1.713c0-.032.946-.49 2.102-1.019 2.087-.954 5.474-1.961 6.596-1.961 1.511 0 1.422-.366-.168-.688-6.778-1.374-12.148-8.056-12.148-15.113 0-8.366 7.167-15.533 15.533-15.533 8.373 0 15.533 7.16 15.533 15.533 0 7.064-5.337 13.7-12.166 15.127-1.278.267-1.528.385-1.036.489l2.63.532c6.932 1.38 13.106 6.351 16.197 13.041 1.658 3.589 1.956 5.252 2.091 11.675l.121 5.764h-31.4z"/></svg>