<svg xmlns="http://www.w3.org/2000/svg" width="512" height="512" viewBox="0 0 135.47 135.47"><path fill="currentColor" d="M10.327 134.53c-1.862-.312-4.336-1.66-5.9-3.215-1.551-1.543-3.026-4.318-3.418-6.431-.167-.902-.262-16.431-.262-43.021v-41.61l36.805-.141.819-.584c1.733-1.236 1.669-.454 1.669-20.608V.687h26.029L93.51.954c4.705.892 8.504 4.692 9.397 9.397.171.9.267 10.817.267 27.4v25.99l-2.554.179c-9.671.677-18.132 4.566-25.099 11.537-3.281 3.282-5.4 6.148-7.326 9.906l-1.04 2.029-23.799.001c-26.32.001-24.921-.088-26.175 1.671-.815 1.143-.815 3.377 0 4.52 1.251 1.754-.015 1.67 24.961 1.67h22.585l-.158.589c-.087.324-.303 2.092-.48 3.929l-.322 3.34H41.662c-24.445 0-23.232-.083-24.482 1.669-.815 1.143-.815 3.377 0 4.52 1.251 1.754-.01 1.669 24.921 1.669h22.544l.275 1.113c2.053 8.316 7 16.239 13.498 21.622l1.31 1.085-34.055-.022-35.347-.238zm61.049-55.666c1.299-.97 1.773-1.842 1.773-3.258s-.475-2.289-1.773-3.258c-.717-.536-.931-.541-26.263-.609-28.289-.077-26.664-.17-27.932 1.608-.814 1.141-.815 3.377-.003 4.515 1.263 1.77-.428 1.673 27.888 1.605 25.386-.061 25.593-.066 26.311-.602zm13.885-15.472c1.392-.661 2.065-1.802 2.065-3.504 0-1.071-.15-1.651-.584-2.26-1.271-1.782 1.08-1.669-34.78-1.669s-33.509-.113-34.78 1.669c-.814 1.141-.815 3.377-.003 4.515 1.268 1.777-1.14 1.661 34.744 1.668l33.339-.419zm0-15.717c1.392-.661 2.065-1.802 2.065-3.504 0-1.071-.15-1.651-.584-2.26-1.229-1.723-.619-1.669-19.063-1.669s-17.834-.053-19.063 1.669c-.814 1.141-.815 3.377-.003 4.515 1.227 1.721.554 1.661 19.026 1.668 14.897.006 16.824-.041 17.622-.419zm0-15.717c1.392-.661 2.065-1.802 2.065-3.504 0-1.071-.15-1.651-.584-2.26-1.229-1.723-.619-1.669-19.063-1.669s-17.834-.053-19.063 1.669c-.814 1.141-.815 3.377-.003 4.515 1.227 1.721.554 1.661 19.026 1.668 14.897.006 16.824-.041 17.622-.419zm14.901 102.69c-2.883-.42-4.361-.733-6.206-1.316-10.972-3.466-19.175-12.656-21.6-24.2-.64-3.047-.64-9.003 0-12.05 2.667-12.694 12.099-22.126 24.793-24.793 3.047-.64 9.003-.64 12.05 0 12.898 2.71 22.655 12.526 25.177 25.329.507 2.575.441 8.842-.122 11.502-2.676 12.653-12.417 22.433-24.924 25.023-2.053.425-7.613.731-9.168.505zm.761-16.222c.462-.219 4.626-4.198 9.252-8.841 9.058-9.091 9.029-9.053 8.602-11.328-.225-1.2-1.694-2.669-2.894-2.894-2.232-.419-2.371-.319-9.756 7.03l-6.87 6.836-2.978-2.91c-3.177-3.104-3.853-3.465-5.813-3.097-1.2.225-2.669 1.694-2.894 2.894-.397 2.116-.121 2.553 4.656 7.38 2.455 2.48 4.832 4.691 5.282 4.913a3.99 3.99 0 0 0 3.414.017zM16.205 19.084L30.79 4.352l1.394-1.438v29.465H3.014z"/></svg>