<?xml version="1.0" encoding="utf-8"?>
<!-- Generator: Adobe Illustrator 22.0.1, SVG Export Plug-In . SVG Version: 6.00 Build 0)  -->
<svg version="1.1" id="Layer_1" xmlns="http://www.w3.org/2000/svg" xmlns:xlink="http://www.w3.org/1999/xlink" x="0px" y="0px"
	 viewBox="0 0 167.6 62.1" style="enable-background:new 0 0 167.6 62.1;" xml:space="preserve">
<style type="text/css">
	.st0{fill:#2D2E82;}
	.st1{fill:#FFFFFF;}
</style>
<g>
	<g>
		<rect class="st0" width="62.1" height="62.1"/>
		<g>
			<path class="st1" d="M23.7,27.8c-0.1-0.5-0.3-1.1-0.5-1.5c-0.3-0.5-0.6-0.9-1.1-1.2c-0.4-0.3-0.9-0.6-1.4-0.8
				C20.1,24.1,19.6,24,19,24c-1.1,0-2,0.2-2.7,0.6c-0.8,0.4-1.4,1-1.8,1.7c-0.5,0.7-0.8,1.5-1,2.4c-0.2,0.9-0.3,1.8-0.3,2.8
				c0,0.9,0.1,1.8,0.3,2.7c0.2,0.9,0.6,1.6,1,2.3c0.5,0.7,1.1,1.2,1.8,1.7c0.8,0.4,1.7,0.6,2.7,0.6c1.5,0,2.6-0.5,3.4-1.4
				c0.8-0.9,1.3-2.1,1.5-3.5h4.6c-0.1,1.4-0.4,2.6-0.9,3.7c-0.5,1.1-1.2,2-2,2.8c-0.8,0.8-1.8,1.4-2.9,1.8c-1.1,0.4-2.3,0.6-3.7,0.6
				c-1.7,0-3.2-0.3-4.5-0.9c-1.3-0.6-2.4-1.4-3.3-2.4c-0.9-1-1.6-2.2-2.1-3.6c-0.5-1.4-0.7-2.9-0.7-4.4c0-1.6,0.2-3.1,0.7-4.5
				c0.5-1.4,1.2-2.6,2.1-3.7c0.9-1,2-1.8,3.3-2.4c1.3-0.6,2.8-0.9,4.5-0.9c1.2,0,2.3,0.2,3.4,0.5c1.1,0.3,2,0.8,2.9,1.5
				c0.8,0.7,1.5,1.5,2.1,2.5c0.5,1,0.9,2.1,1,3.3H23.7z"/>
			<path class="st1" d="M31.8,20.5h15.3v4H36.6v5h9.1v3.7h-9.1v9h-4.8V20.5z"/>
			<path class="st1" d="M53.8,18h-4.3v-3.6h4.3V18z M49.5,20.4h4.3v21.8h-4.3V20.4z"/>
		</g>
	</g>
	<g>
		<path class="st0" d="M70.6,20.3h3.3c0.6,0,1.1,0.1,1.6,0.3c0.4,0.2,0.8,0.5,1.1,0.9c0.3,0.4,0.5,0.8,0.6,1.3
			c0.1,0.5,0.2,1,0.2,1.6s-0.1,1.1-0.2,1.6c-0.1,0.5-0.4,0.9-0.6,1.3c-0.3,0.4-0.7,0.6-1.1,0.9c-0.4,0.2-1,0.3-1.6,0.3h-3.3V20.3z
			 M72,27.2h1.4c0.5,0,1-0.1,1.3-0.2c0.3-0.1,0.6-0.3,0.8-0.6c0.2-0.3,0.3-0.6,0.4-0.9c0.1-0.3,0.1-0.7,0.1-1.1c0-0.4,0-0.8-0.1-1.1
			c-0.1-0.3-0.2-0.7-0.4-0.9c-0.2-0.3-0.5-0.5-0.8-0.6c-0.3-0.1-0.8-0.2-1.3-0.2H72V27.2z"/>
		<path class="st0" d="M78.7,20.3h5.8v1.2h-4.4v2.1h4v1.1h-4v2.3h4.4v1.2h-5.9V20.3z M81.5,17.9H83l-1.6,1.6h-0.9L81.5,17.9z"/>
		<path class="st0" d="M84.8,20.3h1.5l2,6.3h0l2.1-6.3h1.4l-2.7,8h-1.6L84.8,20.3z"/>
		<path class="st0" d="M92.6,20.3h5.8v1.2H94v2.1h4v1.1h-4v2.3h4.4v1.2h-5.9V20.3z"/>
		<path class="st0" d="M99.7,20.3h1.4v6.8h4.1v1.2h-5.5V20.3z"/>
		<path class="st0" d="M109.6,20.1c0.6,0,1.1,0.1,1.6,0.3c0.5,0.2,0.9,0.5,1.2,0.9c0.3,0.4,0.6,0.8,0.8,1.3c0.2,0.5,0.3,1,0.3,1.6
			c0,0.6-0.1,1.1-0.3,1.6c-0.2,0.5-0.4,1-0.8,1.3s-0.7,0.7-1.2,0.9c-0.5,0.2-1,0.3-1.6,0.3c-0.6,0-1.1-0.1-1.6-0.3
			c-0.5-0.2-0.9-0.5-1.2-0.9c-0.3-0.4-0.6-0.8-0.8-1.3c-0.2-0.5-0.3-1.1-0.3-1.6c0-0.6,0.1-1.1,0.3-1.6c0.2-0.5,0.4-1,0.8-1.3
			c0.3-0.4,0.7-0.7,1.2-0.9C108.4,20.2,109,20.1,109.6,20.1z M109.6,21.2c-0.4,0-0.8,0.1-1.1,0.3c-0.3,0.2-0.6,0.4-0.8,0.7
			c-0.2,0.3-0.3,0.6-0.4,1c-0.1,0.4-0.1,0.7-0.1,1.1s0,0.8,0.1,1.1c0.1,0.4,0.2,0.7,0.4,1c0.2,0.3,0.4,0.5,0.8,0.7
			c0.3,0.2,0.7,0.3,1.1,0.3c0.4,0,0.8-0.1,1.1-0.3c0.3-0.2,0.6-0.4,0.8-0.7c0.2-0.3,0.3-0.6,0.4-1c0.1-0.4,0.1-0.7,0.1-1.1
			s0-0.8-0.1-1.1c-0.1-0.4-0.2-0.7-0.4-1c-0.2-0.3-0.4-0.5-0.8-0.7C110.4,21.3,110,21.2,109.6,21.2z"/>
		<path class="st0" d="M114.7,20.3h3.5c0.6,0,1,0.1,1.4,0.2c0.4,0.2,0.6,0.4,0.8,0.6c0.2,0.2,0.3,0.5,0.4,0.8
			c0.1,0.3,0.1,0.6,0.1,0.8c0,0.2,0,0.5-0.1,0.8c-0.1,0.3-0.2,0.6-0.4,0.8c-0.2,0.2-0.5,0.5-0.8,0.6c-0.4,0.2-0.8,0.2-1.4,0.2h-2.1
			v3.1h-1.4V20.3z M116.1,24.1h2.1c0.2,0,0.3,0,0.5-0.1c0.2,0,0.3-0.1,0.5-0.2c0.1-0.1,0.3-0.2,0.3-0.4s0.1-0.4,0.1-0.6
			c0-0.3,0-0.5-0.1-0.7c-0.1-0.2-0.2-0.3-0.3-0.4c-0.1-0.1-0.3-0.2-0.4-0.2c-0.2,0-0.3-0.1-0.5-0.1h-2.1V24.1z"/>
		<path class="st0" d="M122.2,20.3h3.5c0.6,0,1,0.1,1.4,0.2c0.4,0.2,0.6,0.4,0.8,0.6c0.2,0.2,0.3,0.5,0.4,0.8
			c0.1,0.3,0.1,0.6,0.1,0.8c0,0.2,0,0.5-0.1,0.8c-0.1,0.3-0.2,0.6-0.4,0.8c-0.2,0.2-0.5,0.5-0.8,0.6c-0.4,0.2-0.8,0.2-1.4,0.2h-2.1
			v3.1h-1.4V20.3z M123.6,24.1h2.1c0.2,0,0.3,0,0.5-0.1c0.2,0,0.3-0.1,0.5-0.2c0.1-0.1,0.3-0.2,0.3-0.4s0.1-0.4,0.1-0.6
			c0-0.3,0-0.5-0.1-0.7s-0.2-0.3-0.3-0.4c-0.1-0.1-0.3-0.2-0.4-0.2c-0.2,0-0.3-0.1-0.5-0.1h-2.1V24.1z"/>
		<path class="st0" d="M129.7,20.3h5.8v1.2h-4.4v2.1h4v1.1h-4v2.3h4.4v1.2h-5.9V20.3z"/>
		<path class="st0" d="M136.7,20.3h2l2.2,6.3h0l2.2-6.3h2v8h-1.3v-6.2h0l-2.2,6.2h-1.2l-2.2-6.2h0v6.2h-1.3V20.3z"/>
		<path class="st0" d="M146.7,20.3h5.8v1.2h-4.4v2.1h4v1.1h-4v2.3h4.4v1.2h-5.9V20.3z"/>
		<path class="st0" d="M153.7,20.3h1.5l3.7,5.9h0v-5.9h1.3v8h-1.5l-3.7-5.9h0v5.9h-1.3V20.3z"/>
		<path class="st0" d="M161.1,20.3h6.5v1.2h-2.5v6.8h-1.4v-6.8h-2.5V20.3z"/>
		<path class="st0" d="M70.5,33.8h2l2.2,6.3h0l2.2-6.3h2v8h-1.3v-6.2h0l-2.2,6.2h-1.2l-2.2-6.2h0v6.2h-1.3V33.8z"/>
		<path class="st0" d="M80.6,33.8h5.8V35H82v2.1h4v1.1h-4v2.3h4.4v1.2h-5.9V33.8z M83.4,31.4h1.5L83.3,33h-0.9L83.4,31.4z"/>
		<path class="st0" d="M87.6,33.8H91c0.6,0,1.1,0.1,1.6,0.3c0.4,0.2,0.8,0.5,1.1,0.9c0.3,0.4,0.5,0.8,0.6,1.3c0.1,0.5,0.2,1,0.2,1.6
			c0,0.6-0.1,1.1-0.2,1.6c-0.1,0.5-0.4,0.9-0.6,1.3c-0.3,0.4-0.7,0.6-1.1,0.9c-0.4,0.2-1,0.3-1.6,0.3h-3.3V33.8z M89,40.6h1.4
			c0.5,0,1-0.1,1.3-0.2c0.3-0.1,0.6-0.3,0.8-0.6c0.2-0.3,0.3-0.6,0.4-0.9c0.1-0.3,0.1-0.7,0.1-1.1c0-0.4,0-0.8-0.1-1.1
			c-0.1-0.3-0.2-0.7-0.4-0.9c-0.2-0.3-0.5-0.5-0.8-0.6c-0.3-0.1-0.8-0.2-1.3-0.2H89V40.6z"/>
		<path class="st0" d="M95.7,33.8h1.4v8h-1.4V33.8z"/>
		<path class="st0" d="M101,33.8h1.5l3.1,8h-1.5l-0.8-2.1h-3.2l-0.8,2.1h-1.4L101,33.8z M100.5,38.6h2.4l-1.2-3.4h0L100.5,38.6z"/>
		<path class="st0" d="M107.3,39.1c0,0.3,0.1,0.6,0.2,0.8c0.1,0.2,0.3,0.4,0.4,0.5c0.2,0.1,0.4,0.2,0.6,0.3c0.2,0.1,0.5,0.1,0.8,0.1
			c0.3,0,0.6,0,0.8-0.1c0.2-0.1,0.4-0.2,0.5-0.3c0.1-0.1,0.2-0.2,0.3-0.4c0.1-0.1,0.1-0.3,0.1-0.4c0-0.3-0.1-0.5-0.2-0.7
			c-0.1-0.1-0.3-0.2-0.5-0.3c-0.3-0.1-0.6-0.2-1-0.3c-0.4-0.1-0.8-0.2-1.4-0.4c-0.3-0.1-0.6-0.2-0.9-0.4c-0.2-0.1-0.4-0.3-0.5-0.5
			c-0.1-0.2-0.2-0.4-0.3-0.6c-0.1-0.2-0.1-0.4-0.1-0.6c0-0.4,0.1-0.8,0.3-1.1c0.2-0.3,0.4-0.5,0.7-0.7s0.6-0.3,0.9-0.4
			c0.4-0.1,0.7-0.1,1.1-0.1c0.4,0,0.8,0.1,1.2,0.2s0.7,0.3,1,0.5c0.3,0.2,0.5,0.5,0.7,0.8s0.2,0.7,0.2,1.1h-1.4
			c0-0.5-0.2-0.9-0.5-1.1c-0.3-0.2-0.7-0.3-1.2-0.3c-0.2,0-0.3,0-0.5,0c-0.2,0-0.3,0.1-0.5,0.2c-0.1,0.1-0.3,0.2-0.4,0.3
			c-0.1,0.1-0.1,0.3-0.1,0.5c0,0.3,0.1,0.5,0.3,0.7c0.2,0.2,0.4,0.3,0.7,0.4c0,0,0.1,0,0.4,0.1c0.2,0.1,0.4,0.1,0.7,0.2
			c0.3,0.1,0.5,0.1,0.7,0.2c0.2,0.1,0.4,0.1,0.5,0.1c0.3,0.1,0.5,0.2,0.7,0.3c0.2,0.1,0.4,0.3,0.5,0.5s0.2,0.4,0.3,0.6
			c0.1,0.2,0.1,0.4,0.1,0.6c0,0.4-0.1,0.8-0.3,1.2c-0.2,0.3-0.4,0.6-0.7,0.8c-0.3,0.2-0.6,0.4-1,0.4c-0.4,0.1-0.8,0.1-1.2,0.1
			c-0.5,0-0.9-0.1-1.3-0.2c-0.4-0.1-0.8-0.3-1.1-0.5c-0.3-0.2-0.5-0.5-0.7-0.9c-0.2-0.4-0.3-0.8-0.3-1.3H107.3z"/>
	</g>
</g>
</svg>
